<svg width="1000" height="1000" viewBox="0 0 1000 1000" fill="none" xmlns="http://www.w3.org/2000/svg">
<path d="M615.296 269.12C617.497 269.118 619.699 269.109 621.9 269.094C627.833 269.072 633.762 269.149 639.694 269.246C645.923 269.332 652.151 269.329 658.381 269.337C669.5 269.364 680.617 269.463 691.736 269.597C701.797 269.718 711.857 269.79 721.919 269.819C722.58 269.821 723.242 269.823 723.924 269.825C725.921 269.831 727.919 269.837 729.916 269.842C741.466 269.876 753.015 269.945 764.564 270.023C767.035 270.039 769.506 270.054 771.978 270.067C779.021 270.107 786.065 270.165 793.108 270.255C795.237 270.279 797.366 270.297 799.495 270.308C814.186 270.389 826.012 271.108 837.562 281.25C844.821 289.439 847.575 297.304 847.367 308.27C844.885 333.492 817.234 350.839 800.381 367.67C680.011 487.87 558.757 607.198 440 729C439.34 729 438.68 729 438 729C437.883 701.662 437.795 674.324 437.741 646.985C437.715 634.291 437.68 621.597 437.623 608.903C437.573 597.838 437.541 586.772 437.53 575.707C437.523 569.849 437.508 563.991 437.471 558.134C437.437 552.616 437.427 547.099 437.434 541.582C437.433 539.561 437.423 537.539 437.404 535.518C437.226 515.846 437.226 515.846 443 508C443.763 506.887 443.763 506.887 444.541 505.752C445.022 505.174 445.504 504.596 446 504C446.66 504 447.32 504 448 504C448.33 503.01 448.66 502.02 449 501C451.039 499.465 451.039 499.465 453.625 497.937C454.463 497.431 455.301 496.924 456.164 496.402C461.964 493.534 467.498 492.705 473.901 492.735C474.666 492.731 475.431 492.726 476.22 492.722C478.769 492.709 481.317 492.711 483.865 492.713C485.699 492.707 487.533 492.7 489.366 492.692C493.307 492.677 497.248 492.669 501.188 492.664C507.42 492.658 513.652 492.636 519.884 492.612C534.235 492.559 548.586 492.525 562.937 492.492C576.095 492.461 589.253 492.427 602.411 492.376C608.605 492.353 614.8 492.339 620.994 492.332C624.847 492.326 628.7 492.312 632.552 492.296C634.338 492.29 636.124 492.288 637.91 492.289C640.349 492.29 642.787 492.279 645.226 492.265C645.932 492.268 646.637 492.272 647.364 492.275C654.774 492.205 661.383 489.846 667 485C672.755 477.219 674.871 470.63 674 461C672.235 453.231 668.568 448.376 662 444C651.903 438.336 640.282 439.425 629.097 439.454C626.879 439.445 624.66 439.435 622.442 439.423C616.445 439.395 610.448 439.392 604.451 439.392C598.174 439.389 591.897 439.364 585.621 439.34C575.094 439.305 564.567 439.282 554.04 439.271C543.202 439.259 532.364 439.239 521.526 439.208C520.857 439.206 520.188 439.204 519.498 439.202C516.141 439.192 512.783 439.182 509.426 439.172C481.617 439.09 453.809 439.035 426 439C430.277 432.462 430.277 432.462 433.474 429.895C439.462 424.844 444.896 419.228 450.418 413.68C451.605 412.491 452.792 411.302 453.98 410.114C457.086 407.004 460.188 403.892 463.29 400.778C466.444 397.615 469.6 394.454 472.756 391.293C478.307 385.732 483.856 380.169 489.403 374.604C491.933 372.067 494.466 369.533 497 367C497.608 366.392 498.217 365.783 498.844 365.156C557 307 557 307 559.684 304.332C562.24 301.758 564.548 299.046 566.863 296.258C568.729 294.287 570.615 292.619 572.689 290.879C575.572 288.382 578.08 285.83 580.497 282.882C591.038 270.329 599.37 268.706 615.296 269.12Z" fill="#FEFEFE"/>
<path d="M581 271C576.97 275.782 572.814 280.412 568.516 284.954C567.577 285.949 567.577 285.949 566.62 286.964C564.537 289.17 562.451 291.372 560.365 293.574C559.631 294.349 558.898 295.124 558.142 295.923C543.626 311.251 528.956 326.428 514.226 341.55C512.356 343.471 510.486 345.393 508.617 347.315C508.153 347.792 507.688 348.27 507.21 348.762C500.197 355.977 493.268 363.265 486.38 370.598C478.341 379.156 470.21 387.613 461.963 395.971C457.613 400.384 453.319 404.829 449.131 409.398C433.554 426.334 420.341 440.243 396.299 441.307C384.806 441.475 373.379 440.571 362 439C366.03 434.218 370.186 429.588 374.484 425.046C375.11 424.383 375.736 423.719 376.38 423.036C378.463 420.83 380.549 418.628 382.635 416.426C383.369 415.651 384.102 414.876 384.858 414.078C399.374 398.749 414.044 383.572 428.774 368.45C430.644 366.529 432.514 364.607 434.383 362.685C434.847 362.208 435.312 361.73 435.79 361.238C442.803 354.023 449.732 346.735 456.62 339.402C464.659 330.845 472.79 322.387 481.037 314.03C485.387 309.616 489.681 305.171 493.869 300.603C520.626 271.51 541.813 265.589 581 271Z" fill="#FCFCFC"/>
<path d="M506 271C504.726 273.038 503.389 275.039 502 277C501.34 277 500.68 277 500 277C499.67 277.99 499.34 278.98 499 280C496.562 282.688 496.562 282.688 494 285C493.34 285 492.68 285 492 285C491.67 285.99 491.34 286.98 491 288C489.555 289.248 488.105 290.491 486.613 291.684C483.23 294.444 480.365 297.548 477.625 300.938C475.284 303.814 472.63 306.059 469.773 308.41C467.318 310.612 465.303 313.096 463.262 315.68C462.845 316.115 462.429 316.551 462 317C461.34 317 460.68 317 460 317C459.67 317.99 459.34 318.98 459 320C457.328 321.613 457.328 321.613 455.25 323.313C452.603 325.542 450.273 327.723 448.125 330.438C447.424 331.283 446.723 332.129 446 333C445.34 333 444.68 333 444 333C443.67 333.99 443.34 334.98 443 336C441.582 337.359 441.582 337.359 439.812 338.75C437.266 340.845 435.092 342.952 433 345.5C430.457 348.586 427.669 351.055 424.594 353.598C422.424 355.507 420.759 357.713 419 360C415.262 363.951 411.202 367.488 407.086 371.035C404.945 372.933 404.945 372.933 403.352 375.246C402.906 375.825 402.46 376.404 402 377C401.34 377 400.68 377 400 377C399.01 378.98 399.01 378.98 398 381C397.34 381 396.68 381 396 381C395.505 382.485 395.505 382.485 395 384C392.063 387.213 388.842 390.016 385.562 392.875C382.198 395.834 379.297 398.888 376.465 402.348C374.405 404.671 372.049 406.557 369.66 408.531C367.116 410.782 365.135 413.359 363 416C360.312 418.875 360.312 418.875 358 421C357.34 421 356.68 421 356 421C355.67 421.99 355.34 422.98 355 424C353.551 425.218 352.099 426.432 350.617 427.609C347.437 430.344 344.887 433.73 342.491 437.159C338.536 440.082 334.552 439.493 329.766 439.391C328.772 439.385 327.779 439.379 326.756 439.373C323.587 439.351 320.419 439.301 317.25 439.25C315.1 439.23 312.951 439.212 310.801 439.195C305.533 439.151 300.267 439.084 295 439C296.268 436.244 297.592 434.141 299.682 431.947C300.503 431.078 300.503 431.078 301.341 430.191C301.942 429.565 302.544 428.938 303.164 428.293C303.803 427.62 304.443 426.947 305.102 426.253C307.252 423.994 309.41 421.743 311.568 419.491C313.111 417.875 314.654 416.259 316.197 414.642C330.354 399.834 344.648 385.16 358.982 370.523C360.904 368.559 362.826 366.595 364.747 364.63C365.225 364.142 365.702 363.653 366.194 363.151C373.882 355.287 381.482 347.344 389.052 339.367C396.858 331.146 404.752 323.017 412.726 314.959C417.189 310.443 421.606 305.898 425.931 301.25C450.958 274.427 469.053 265.002 506 271Z" fill="#FAFAFA"/>
<path d="M388.225 270.886C389.183 270.892 390.142 270.897 391.129 270.902C392.681 270.907 392.681 270.907 394.264 270.912C395.352 270.92 396.441 270.929 397.562 270.938C399.201 270.944 399.201 270.944 400.873 270.951C403.582 270.963 406.291 270.979 409 271C404.938 275.852 400.705 280.473 396.276 284.992C395.3 285.993 395.3 285.993 394.303 287.015C392.137 289.234 389.967 291.45 387.797 293.666C386.236 295.263 384.674 296.86 383.113 298.457C368.886 313.001 354.593 327.481 340.281 341.941C338.368 343.875 336.455 345.808 334.542 347.742C334.067 348.222 333.591 348.703 333.102 349.198C325.409 356.978 317.757 364.797 310.12 372.631C302.258 380.696 294.353 388.717 286.409 396.701C281.959 401.178 277.529 405.671 273.144 410.212C269.016 414.487 264.837 418.707 260.616 422.891C259.083 424.428 257.569 425.984 256.077 427.559C248.695 435.331 243.074 440.658 231.961 440.993C227.607 440.892 223.316 440.579 219 440C220.55 436.527 222.366 434.782 225.355 432.418C227.699 430.398 229.587 428.071 231.562 425.699C234.339 422.417 237.319 419.539 240.688 416.875C243.192 415.034 243.192 415.034 245 412C245.66 412 246.32 412 247 412C247.227 411.443 247.454 410.886 247.688 410.312C249.86 406.485 252.973 403.79 256.438 401.125C259.159 398.868 261.269 396.438 263.527 393.734C266.221 390.562 269.067 387.712 272.375 385.188C275.331 382.724 277.677 380.004 280.172 377.086C282.963 373.901 285.978 370.963 289 368C289.866 367.113 290.733 366.226 291.625 365.312C294 363 294 363 296.438 361.125C299.157 358.87 301.266 356.443 303.52 353.738C305.549 351.355 307.758 349.182 310 347C310.557 346.402 311.114 345.804 311.688 345.188C313 344 313 344 315 344C315.99 342.02 315.99 342.02 317 340C317.66 340 318.32 340 319 340C319.371 339.134 319.371 339.134 319.75 338.25C321.183 335.671 322.784 333.939 325 332C325.66 332 326.32 332 327 332C327.227 331.443 327.454 330.886 327.688 330.312C329.86 326.485 332.973 323.79 336.438 321.125C339.175 318.855 341.308 316.402 343.582 313.684C345.286 311.66 347.026 309.763 349 308C349.66 308 350.32 308 351 308C351.379 307.132 351.379 307.132 351.766 306.246C354.586 301.115 359.576 297.162 364.062 293.5C367.181 290.846 369.684 287.972 372.328 284.859C374.346 282.615 376.615 280.84 379 279C379.66 278.01 380.32 277.02 381 276C381.66 276 382.32 276 383 276C383.309 275.361 383.619 274.721 383.938 274.062C385.502 271.025 385.502 271.025 388.225 270.886Z" fill="#F8F8F8"/>
<path d="M332 271C330.876 274.373 329.927 275.151 327.25 277.375C324.011 280.123 320.966 282.954 318 286C316.335 287.668 314.668 289.334 313 291C311.98 292.019 310.961 293.039 309.941 294.059C218.875 385.125 218.875 385.125 217.406 386.594C216.063 387.937 214.721 389.28 213.379 390.623C211.236 392.764 209.086 394.899 206.934 397.031C205.435 398.521 203.936 400.01 202.438 401.5C201.305 402.62 201.305 402.62 200.15 403.762C196.527 407.369 193.162 410.975 190 415C188.719 416.202 187.407 417.371 186.062 418.5C182.874 421.188 179.932 424.033 177 427C176.048 427.943 175.095 428.884 174.141 429.824C173.177 430.779 172.214 431.733 171.25 432.687C170.756 433.173 170.263 433.658 169.754 434.158C167.034 436.818 167.034 436.818 165 440C161.04 440 157.08 440 153 440C154.926 436.149 156.084 434.819 159.25 432.125C165.604 426.557 171.514 420.577 177.447 414.567C178.869 413.132 180.305 411.71 181.742 410.289C183.55 408.456 185.199 406.624 186.812 404.625C189.655 401.246 192.836 398.469 196.195 395.617C198.145 393.959 198.145 393.959 200 391.5C201.764 389.295 203.416 387.718 205.555 385.906C210.288 381.807 214.71 377.437 219.125 373C219.897 372.232 220.669 371.463 221.465 370.672C225.396 366.734 229.143 362.733 232.717 358.47C234.371 356.575 236.184 354.97 238.125 353.375C241.161 350.798 243.519 348.121 246 345C247.718 343.443 249.486 341.959 251.266 340.473C254.438 337.779 257.288 334.933 259.812 331.625C262.239 328.713 264.906 326.417 267.781 323.961C271.704 320.494 275.332 316.732 279 313C284 308 284 308 285.902 306.133C290.421 301.676 290.421 301.676 294.562 296.875C296.945 294.064 299.422 291.902 302.246 289.566C304.018 287.984 305.491 286.331 307 284.5C309.552 281.409 312.314 278.871 315.43 276.355C317.167 274.957 317.167 274.957 318.75 272.625C322.64 269.816 327.364 270.712 332 271Z" fill="#F7F7F7"/>
<path d="M502 276C502.495 277.485 502.495 277.485 503 279C502.553 279.375 502.105 279.75 501.645 280.137C500.738 280.904 500.738 280.904 499.812 281.688C499.221 282.186 498.629 282.685 498.02 283.199C495.581 285.373 493.296 287.679 491 290C489.511 291.49 488.021 292.98 486.531 294.469C485.713 295.287 484.894 296.106 484.051 296.949C440 341 440 341 437.27 343.695C434.978 345.926 434.978 345.926 433.188 348.375C431.402 350.518 429.794 352.095 427.688 353.875C421.326 359.301 415.556 365.366 409.679 371.305C407.461 373.545 405.231 375.773 403 378C402.072 378.928 401.144 379.856 400.188 380.812C399.105 381.895 399.105 381.895 398 383C397.34 382.34 396.68 381.68 396 381C396.436 380.648 396.871 380.296 397.32 379.934C401.163 376.748 404.42 373.437 407.598 369.594C409.507 367.424 411.713 365.759 414 364C418.302 359.937 422.135 355.475 426.012 351.012C426.996 350.016 426.996 350.016 428 349C428.66 349 429.32 349 430 349C430.268 348.361 430.536 347.721 430.812 347.062C432 345 432 345 435 344C436.209 342 436.209 342 437 340C437.66 340 438.32 340 439 340C439.206 339.443 439.412 338.886 439.625 338.312C441.143 335.76 442.96 334.32 445.277 332.504C447.992 330.134 450.202 327.355 452.484 324.574C452.985 324.055 453.485 323.535 454 323C454.66 323 455.32 323 456 323C456.33 322.01 456.66 321.02 457 320C458.983 318.313 460.983 316.646 463 315C463.66 314.01 464.32 313.02 465 312C465.66 312 466.32 312 467 312C467.66 310.68 468.32 309.36 469 308C469.66 308 470.32 308 471 308C471.227 307.443 471.454 306.886 471.688 306.312C473.86 302.485 476.973 299.79 480.438 297.125C482.59 295.34 484.169 293.694 485.938 291.562C488.661 288.28 491.715 285.726 495 283C495.939 281.936 496.857 280.853 497.75 279.75C500 277 500 277 502 276Z" fill="#252525"/>
<path d="M202 389C202.495 390.485 202.495 390.485 203 392C199.862 396.454 196.047 399.756 191.918 403.273C189.289 405.64 187.217 408.244 185 411C182.312 413.875 182.312 413.875 180 416C179.34 416 178.68 416 178 416C178 416.66 178 417.32 178 418C176.391 419.551 176.391 419.551 174.25 421.312C171.899 423.306 169.931 425.086 168 427.5C165.086 431.143 161.542 433.985 158 437C157.505 437.495 157.505 437.495 157 438C159.64 438.33 162.28 438.66 165 439C165 439.33 165 439.66 165 440C161.04 440 157.08 440 153 440C154.926 436.149 156.084 434.819 159.25 432.125C165.604 426.557 171.514 420.577 177.447 414.567C178.869 413.132 180.305 411.71 181.742 410.289C183.55 408.456 185.199 406.624 186.812 404.625C189.646 401.257 192.815 398.487 196.164 395.645C198.406 393.636 200.232 391.431 202 389Z" fill="#EFEFEF"/>
<path d="M406 274C407 278 407 278 406 280C405.216 280.433 404.433 280.866 403.625 281.312C400.646 283.227 399.771 284.997 398 288C396.685 288.702 395.349 289.365 394 290C391.257 292.547 389.079 294.881 387 298C385.333 298 383.667 298 382 298C389.92 290.08 397.84 282.16 406 274Z" fill="#252525"/>
<path d="M267 413C267.66 413.99 268.32 414.98 269 416C267.333 417.667 265.667 419.333 264 421C263.505 421.516 263.01 422.031 262.5 422.562C259.254 425.673 255.608 428.328 252 431C251.34 430.67 250.68 430.34 250 430C255.61 424.39 261.22 418.78 267 413Z" fill="#292929"/>
<path d="M531 271C547.5 271 564 271 581 271C580.01 271.99 579.02 272.98 578 274C577.505 273.505 577.505 273.505 577 273C575.558 272.878 574.111 272.822 572.664 272.795C571.743 272.775 570.822 272.755 569.873 272.734C568.872 272.718 567.871 272.701 566.84 272.684C565.82 272.663 564.801 272.642 563.75 272.621C560.479 272.555 557.208 272.496 553.938 272.438C551.726 272.394 549.514 272.351 547.303 272.307C541.869 272.199 536.434 272.098 531 272C531 271.67 531 271.34 531 271Z" fill="#ECECEC"/>
<path d="M202 389C202.33 389.99 202.66 390.98 203 392C199.864 396.451 196.057 399.76 191.918 403.262C190.163 404.852 188.755 406.442 187.312 408.312C184.942 411.067 183.446 412.016 180 413C181.075 409.776 181.703 409.174 184.25 407.125C187.347 404.563 190.19 401.88 193 399C193.592 398.419 194.183 397.837 194.793 397.238C195.418 396.623 196.043 396.009 196.688 395.375C197.269 394.805 197.85 394.235 198.449 393.648C200.203 391.876 200.203 391.876 202 389Z" fill="#D9D9D9"/>
<path d="M229 428C229.66 428.99 230.32 429.98 231 431C228.36 433.31 225.72 435.62 223 438C228.94 438.33 234.88 438.66 241 439C241 439.33 241 439.66 241 440C233.74 440 226.48 440 219 440C221.164 435.673 223.301 434.005 227 431C227.66 430.01 228.32 429.02 229 428Z" fill="#AEAEAE"/>
<path d="M266 325C266.33 325.99 266.66 326.98 267 328C264.041 333.001 259.047 336.848 254.637 340.52C252.888 341.921 252.888 341.921 252 344C251.34 344 250.68 344 250 344C250 344.66 250 345.32 250 346C248.68 346.33 247.36 346.66 246 347C246 346.34 246 345.68 246 345C247.355 343.668 247.355 343.668 249.188 342.188C254.013 338.179 258.098 333.91 262 329C263.315 327.649 264.643 326.309 266 325Z" fill="#E6E6E6"/>
<path d="M321 359C321 363.285 318.748 364.849 316 368C315.67 368.66 315.34 369.32 315 370C313.667 371.333 312.333 372.667 311 374C310.67 374.66 310.34 375.32 310 376C308.35 376 306.7 376 305 376C309.984 369.967 315.419 364.482 321 359Z" fill="#2D2D2D"/>
<path d="M302 378C302 380 302 382 302 384C300.855 384.681 300.855 384.681 299.688 385.375C296.61 387.236 295.739 388.918 294 392C293.01 392.66 292.02 393.32 291 394C291 393.34 291 392.68 291 392C290.34 391.67 289.68 391.34 289 391C293.29 386.71 297.58 382.42 302 378Z" fill="#292929"/>
<path d="M342 338C342.66 339.32 343.32 340.64 344 342C343.469 342.387 342.938 342.773 342.391 343.172C338.672 345.914 335.147 348.591 332 352C331.34 351.34 330.68 350.68 330 350C333.96 346.04 337.92 342.08 342 338Z" fill="#262626"/>
<path d="M593 271C593 274.262 592.782 275.327 591 278C590.01 278.639 589.02 279.279 588 279.938C584.792 282.143 584.02 283.328 583 287C582.01 286.67 581.02 286.34 580 286C579.67 286.66 579.34 287.32 579 288C579 285 579 285 580.285 283.374C580.872 282.803 581.458 282.233 582.062 281.645C582.694 281.023 583.326 280.401 583.977 279.76C584.644 279.117 585.312 278.475 586 277.812C586.668 277.158 587.335 276.504 588.023 275.83C589.676 274.213 591.335 272.604 593 271Z" fill="#EDEDED"/>
<path d="M267 336C267.688 337.812 267.688 337.812 268 340C266.688 341.75 266.688 341.75 265 343C264.34 343 263.68 343 263 343C262.67 343.66 262.34 344.32 262 345C260 347 258 349 256 351C255.34 350.34 254.68 349.68 254 349C255.452 347.494 256.912 345.995 258.375 344.5C259.593 343.247 259.593 343.247 260.836 341.969C263 340 263 340 265 340C265.66 338.68 266.32 337.36 267 336Z" fill="#2F2F2F"/>
<path d="M234 357C234.99 357.33 235.98 357.66 237 358C231.667 363.333 226.333 368.667 221 374C221 371 221 371 222.32 369.422C222.916 368.87 223.511 368.318 224.125 367.75C227.683 364.352 230.843 360.773 234 357Z" fill="#E0E0E0"/>
<path d="M489 375C489 378.999 487.647 380.067 485 383C483.354 384.358 481.687 385.693 480 387C478.649 388.315 477.309 389.643 476 391C475.34 390.67 474.68 390.34 474 390C478.95 385.05 483.9 380.1 489 375Z" fill="#ECECEC"/>
<path d="M294 297C294.66 297.66 295.32 298.32 296 299C293.309 302.587 290.547 305.271 287 308C286.484 308.557 285.969 309.114 285.438 309.688C283.699 311.275 282.293 311.605 280 312C280.681 311.319 281.361 310.639 282.062 309.938C282.514 309.485 282.965 309.033 283.43 308.566C284.555 307.444 285.686 306.328 286.82 305.215C287.436 304.608 288.053 304.001 288.688 303.375C289.269 302.805 289.85 302.235 290.449 301.648C292.203 299.876 292.203 299.876 294 297Z" fill="#DDDDDD"/>
<path d="M516 348C516.66 348.66 517.32 349.32 518 350C517.113 350.722 516.226 351.444 515.312 352.188C512.371 354.637 509.671 357.256 507 360C506 361 505 362 504 363C503.34 362.67 502.68 362.34 502 362C506.667 357.333 511.333 352.667 516 348Z" fill="#E6E6E6"/>
<path d="M453 498C453.66 498.33 454.32 498.66 455 499C454.529 499.459 454.059 499.918 453.574 500.391C449.696 504.191 449.696 504.191 446.25 508.375C445 510 445 510 442 511C443.204 508.506 444.454 506.319 446 504C446.66 504 447.32 504 448 504C448.33 503.01 448.66 502.02 449 501C451.062 499.312 451.062 499.312 453 498Z" fill="#D0D0D0"/>
<path d="M161 431C161.66 431.33 162.32 431.66 163 432C161.02 433.98 159.04 435.96 157 438C159.64 438.33 162.28 438.66 165 439C165 439.33 165 439.66 165 440C161.04 440 157.08 440 153 440C155.269 435.462 157.099 434.053 161 431Z" fill="#B0B0B0"/>
<path d="M438 426C438.33 426.66 438.66 427.32 439 428C438.67 428.66 438.34 429.32 438 430C437.34 430 436.68 430 436 430C436 430.66 436 431.32 436 432C434.017 433.687 432.017 435.354 430 437C429.67 437.66 429.34 438.32 429 439C428.01 438.67 427.02 438.34 426 438C429.422 433.295 433.579 429.723 438 426Z" fill="#E1E1E1"/>
<path d="M548 316C548.99 316.99 549.98 317.98 551 319C550.257 319.227 549.515 319.454 548.75 319.688C545.489 321.244 544.165 323.163 542 326C541.34 326 540.68 326 540 326C539.67 326.66 539.34 327.32 539 328C539 325 539 325 540.969 322.738C542.222 321.538 542.222 321.538 543.5 320.312C544.335 319.504 545.171 318.696 546.031 317.863C546.681 317.248 547.331 316.634 548 316Z" fill="#EEEEEE"/>
<path d="M451 413C451.66 413.66 452.32 414.32 453 415C452.278 415.557 451.556 416.114 450.812 416.688C447.952 418.954 447.952 418.954 445.438 421.625C443.254 423.752 441.704 424.754 439 426C442.805 421.44 446.75 417.149 451 413Z" fill="#ECECEC"/>
<path d="M349 428C349.66 428.99 350.32 429.98 351 431C350.277 431.615 350.277 431.615 349.539 432.242C348.907 432.781 348.276 433.32 347.625 433.875C346.999 434.409 346.372 434.942 345.727 435.492C344.442 436.614 343.206 437.794 342 439C341.34 438.34 340.68 437.68 340 437C340.619 436.752 341.238 436.505 341.875 436.25C344.351 434.794 344.951 433.622 346 431C346.66 431 347.32 431 348 431C348.33 430.01 348.66 429.02 349 428Z" fill="#303030"/>
<path d="M529 335C529 339.023 527.676 340.043 525 343C523.051 344.745 521.049 346.37 519 348C518.34 347.67 517.68 347.34 517 347C520.96 343.04 524.92 339.08 529 335Z" fill="#ECECEC"/>
<path d="M300 303C300.66 303.66 301.32 304.32 302 305C301.01 306.485 301.01 306.485 300 308C299.34 308 298.68 308 298 308C298 308.66 298 309.32 298 310C297.34 310 296.68 310 296 310C295.67 310.66 295.34 311.32 295 312C294.01 311.67 293.02 311.34 292 311C294.64 308.36 297.28 305.72 300 303Z" fill="#2F2F2F"/>
<path d="M181 422C181.33 422.66 181.66 423.32 182 424C181.546 424.412 181.093 424.825 180.625 425.25C178.94 427.064 178.007 428.753 177 431C176.34 431 175.68 431 175 431C174.67 431.66 174.34 432.32 174 433C173.34 432.34 172.68 431.68 172 431C172.952 429.994 173.912 428.995 174.875 428C175.676 427.165 175.676 427.165 176.492 426.312C178 425 178 425 180 425C180.33 424.01 180.66 423.02 181 422Z" fill="#313131"/>
<path d="M213 390C213 393 213 393 212 396C210.124 397.845 208.073 399.368 206 401C205.34 400.34 204.68 399.68 204 399C206.97 396.03 209.94 393.06 213 390Z" fill="#353535"/>
<path d="M437 340C437.33 340.99 437.66 341.98 438 343C436.566 345.043 436.566 345.043 434.562 347.188C433.904 347.903 433.245 348.618 432.566 349.355C431.791 350.17 431.791 350.17 431 351C430.01 350.34 429.02 349.68 428 349C428.66 349 429.32 349 430 349C430.268 348.361 430.536 347.721 430.812 347.062C432 345 432 345 435 344C436.209 342 436.209 342 437 340Z" fill="#323232"/>
<path d="M462 402C462.66 402.33 463.32 402.66 464 403C462.658 407.026 460.513 407.752 457 410C455.206 411.624 455.206 411.624 454 413C453.34 412.67 452.68 412.34 452 412C455.3 408.7 458.6 405.4 462 402Z" fill="#EBEBEB"/>
<path d="M189 403C189.66 403.33 190.32 403.66 191 404C185.034 411.667 185.034 411.667 180 413C181.151 409.547 182.321 408.619 185.062 406.312C186.163 405.379 186.163 405.379 187.285 404.426C187.851 403.955 188.417 403.485 189 403Z" fill="#E3E3E3"/>
<path d="M502 276C502.33 276.99 502.66 277.98 503 279C502.277 279.615 502.277 279.615 501.539 280.242C500.907 280.781 500.276 281.32 499.625 281.875C498.999 282.409 498.372 282.942 497.727 283.492C496.442 284.614 495.206 285.794 494 287C494.507 282.603 497.119 280.162 500 277C500.66 276.67 501.32 276.34 502 276Z" fill="#1A1A1A"/>
<path d="M228 375C228.66 375.99 229.32 376.98 230 378C229.34 378 228.68 378 228 378C228 378.66 228 379.32 228 380C226 381.625 226 381.625 224 383C223.34 382.34 222.68 381.68 222 381C223.98 379.02 225.96 377.04 228 375Z" fill="#303030"/>
<path d="M242 361C242.66 361.99 243.32 362.98 244 364C243.34 364 242.68 364 242 364C242 364.66 242 365.32 242 366C240 367.625 240 367.625 238 369C237.34 368.34 236.68 367.68 236 367C237.98 365.02 239.96 363.04 242 361Z" fill="#303030"/>
<path d="M406 274C407 278 407 278 406 280C403.516 280.828 401.648 281 399 281C401.31 278.69 403.62 276.38 406 274Z" fill="#2F2F2F"/>
<path d="M196 407C196.66 407.66 197.32 408.32 198 409C196.35 410.98 194.7 412.96 193 415C192.01 414.34 191.02 413.68 190 413C190.99 412.67 191.98 412.34 193 412C194.15 410.033 194.15 410.033 195 408C195.33 407.67 195.66 407.34 196 407Z" fill="#2B2B2B"/>
<path d="M577 287C577 291.39 574.872 292.769 572 296C571.01 295.34 570.02 294.68 569 294C571.64 291.69 574.28 289.38 577 287Z" fill="#E2E2E2"/>
<path d="M171 417C173.062 417.438 173.062 417.438 175 418C172.03 420.475 172.03 420.475 169 423C169.875 418.125 169.875 418.125 171 417Z" fill="#242424"/>
<path d="M266 325C266.33 325.99 266.66 326.98 267 328C265.596 330.264 263.803 332.021 262 334C261.34 333.34 260.68 332.68 260 332C261.98 329.69 263.96 327.38 266 325Z" fill="#CFCFCF"/>
<path d="M307 296C307.33 297.32 307.66 298.64 308 300C306.188 301.562 306.188 301.562 304 303C303.01 302.67 302.02 302.34 301 302C302.98 300.02 304.96 298.04 307 296Z" fill="#373737"/>
<path d="M473 391C473 394 473 394 470.5 396.688C469.675 397.451 468.85 398.214 468 399C467.34 398.67 466.68 398.34 466 398C468.31 395.69 470.62 393.38 473 391Z" fill="#E9E9E9"/>
<path d="M221 382C221 385 221 385 220 388C219.34 388 218.68 388 218 388C217.67 388.66 217.34 389.32 217 390C216.34 389.34 215.68 388.68 215 388C216.98 386.02 218.96 384.04 221 382Z" fill="#3A3A3A"/>
</svg>
